<svg width="28" height="24" viewBox="0 0 28 24" fill="none" xmlns="http://www.w3.org/2000/svg">
<path d="M13.4895 9.91515C13.8047 10.2303 14.1871 10.4399 14.5919 10.5423C14.2676 11.2302 14.1408 11.9946 14.2255 12.7503L12.9999 13.472L0.223951 5.95675C0.333004 4.97858 0.798869 4.07495 1.53242 3.41873C2.26598 2.76252 3.21572 2.3998 4.19995 2.39995H17.5999L13.4863 6.51995C13.2635 6.74304 13.0869 7.00785 12.9664 7.29925C12.846 7.59064 12.7842 7.90291 12.7845 8.21821C12.7848 8.53352 12.8472 8.84567 12.9682 9.13684C13.0891 9.42801 13.2663 9.69248 13.4895 9.91515ZM14.7311 14.3103C15.0423 14.8594 15.4761 15.3291 15.9987 15.6829C16.5213 16.0368 17.1186 16.2651 17.7439 16.3501C18.3693 16.4351 19.0058 16.3745 19.6039 16.1731C20.202 15.9717 20.7455 15.6348 21.1919 15.1887L25.7999 10.5968V19.1999C25.7999 20.2608 25.3785 21.2782 24.6284 22.0284C23.8782 22.7785 22.8608 23.1999 21.7999 23.1999H4.19995C3.13908 23.1999 2.12167 22.7785 1.37152 22.0284C0.621378 21.2782 0.199951 20.2608 0.199951 19.1999V7.79675L12.5951 15.0895C12.7181 15.1619 12.8581 15.2 13.0007 15.2C13.1434 15.2 13.2834 15.1619 13.4063 15.0895L14.7311 14.3103ZM21.3615 3.16155C21.8506 2.68136 22.5096 2.41372 23.195 2.41687C23.8804 2.42002 24.5369 2.6937 25.0215 3.17837C25.5062 3.66304 25.7799 4.31948 25.783 5.0049C25.7862 5.69032 25.5185 6.34925 25.0383 6.83835L25.0223 6.85435L18.8495 13.0048L18.8335 13.0207C18.7491 13.1027 18.6493 13.1672 18.5399 13.2106C18.4305 13.254 18.3136 13.2754 18.196 13.2736C18.0783 13.2718 17.9621 13.2469 17.8541 13.2002C17.7461 13.1535 17.6483 13.086 17.5663 13.0016C17.4844 12.9171 17.4199 12.8173 17.3765 12.7079C17.3331 12.5985 17.3117 12.4816 17.3135 12.364C17.3153 12.2463 17.3402 12.1301 17.3869 12.0221C17.4336 11.9141 17.5011 11.8163 17.5855 11.7344L23.1647 6.16635C23.315 6.01634 23.3994 5.81281 23.3996 5.60052C23.3997 5.38823 23.3156 5.18457 23.1655 5.03435C23.0155 4.88413 22.812 4.79966 22.5997 4.79951C22.3874 4.79936 22.1838 4.88354 22.0335 5.03355L16.4335 10.6224C15.9716 11.0897 15.7126 11.7203 15.7128 12.3774C15.7129 13.0345 15.9722 13.6651 16.4343 14.1323C16.8964 14.5994 17.5241 14.8655 18.1811 14.8728C18.8382 14.8801 19.4716 14.628 19.9439 14.1712L19.9631 14.1551L26.1695 7.97115C26.5596 7.58118 26.8691 7.11819 27.0802 6.60863C27.2914 6.09906 27.4001 5.5529 27.4002 5.00132C27.4002 4.44974 27.2917 3.90354 27.0807 3.39392C26.8696 2.8843 26.5603 2.42123 26.1703 2.03115C25.7804 1.64107 25.3174 1.33162 24.8078 1.12048C24.2983 0.909327 23.7521 0.800611 23.2005 0.800537C22.6489 0.800463 22.1027 0.909031 21.5931 1.12004C21.0835 1.33106 20.6204 1.64038 20.2303 2.03035L14.5199 7.74715C14.3742 7.89803 14.2936 8.10011 14.2954 8.30987C14.2972 8.51963 14.3814 8.72028 14.5297 8.86861C14.678 9.01693 14.8787 9.10107 15.0884 9.10289C15.2982 9.10471 15.5003 9.02408 15.6511 8.87835L21.3599 3.16155H21.3615Z" fill="#C4C4C4" fill-opacity="0.74"/>
</svg>
