<svg width="23" height="22" viewBox="0 0 23 22" fill="none" xmlns="http://www.w3.org/2000/svg">
<path d="M8.33325 0.333252H13.6666V5.66658H8.33325V0.333252ZM0.333252 16.3333H5.66658V21.6666H0.333252V16.3333ZM0.333252 8.33325H5.66658V13.6666H0.333252V8.33325ZM0.333252 0.333252H5.66658V5.66658H0.333252V0.333252ZM13.6666 11.5599V8.33325H8.33325V13.6666H11.5599L13.6666 11.5599ZM22.8399 10.0533L21.2799 8.49325C21.2291 8.44245 21.1689 8.40216 21.1025 8.37467C21.0362 8.34717 20.9651 8.33302 20.8933 8.33302C20.8214 8.33302 20.7503 8.34717 20.684 8.37467C20.6176 8.40216 20.5574 8.44245 20.5066 8.49325L19.3333 9.66658L21.6666 11.9999L22.8399 10.8266C22.8907 10.7758 22.931 10.7155 22.9585 10.6492C22.986 10.5828 23.0001 10.5117 23.0001 10.4399C23.0001 10.3681 22.986 10.297 22.9585 10.2306C22.931 10.1643 22.8907 10.104 22.8399 10.0533ZM9.66658 19.3333V21.6666H11.9999L20.8933 12.7733L18.5599 10.4399L9.66658 19.3333ZM16.3333 0.333252H21.6666V5.66658H16.3333V0.333252Z" fill="#C4C4C4" fill-opacity="0.74"/>
</svg>
