<svg width="30" height="28" viewBox="0 0 30 28" fill="none" xmlns="http://www.w3.org/2000/svg">
<path d="M28.5781 13.7813L16.5031 1.71258L15.6937 0.903204C15.5093 0.720005 15.2599 0.617188 15 0.617188C14.74 0.617188 14.4906 0.720005 14.3062 0.903204L1.42186 13.7813C1.23289 13.9695 1.08355 14.1937 0.982646 14.4406C0.881742 14.6875 0.83132 14.9521 0.834358 15.2188C0.846858 16.3188 1.76248 17.1969 2.86248 17.1969H4.19061V27.3751H25.8094V17.1969H27.1656C27.7 17.1969 28.2031 16.9876 28.5812 16.6094C28.7674 16.4239 28.9149 16.2032 29.0152 15.9602C29.1156 15.7172 29.1667 15.4567 29.1656 15.1938C29.1656 14.6626 28.9562 14.1594 28.5781 13.7813ZM16.75 25.1251H13.25V18.7501H16.75V25.1251ZM23.5594 14.9469V25.1251H18.75V18.0001C18.75 17.3094 18.1906 16.7501 17.5 16.7501H12.5C11.8094 16.7501 11.25 17.3094 11.25 18.0001V25.1251H6.44061V14.9469H3.44061L15.0031 3.39383L15.725 4.1157L26.5625 14.9469H23.5594Z" fill="#C4C4C4" fill-opacity="0.76"/>
</svg>
