<svg width="32" height="32" viewBox="0 0 32 32" fill="none" xmlns="http://www.w3.org/2000/svg">
<path d="M10.6667 24.082V22.432C8.70758 21.19 7.11114 18.096 7.11114 15C7.11114 10.03 7.11114 6 12.4445 6C17.7778 6 17.7778 10.03 17.7778 15C17.7778 18.096 16.1814 21.19 14.2222 22.432V24.082C20.2525 24.636 24.8889 27.97 24.8889 32H2.67029e-05C2.67029e-05 27.97 4.63647 24.636 10.6667 24.082Z" fill="#C4C4C4" fill-opacity="0.74"/>
<path d="M22.912 24.854C21.376 23.724 19.4649 22.866 17.3618 22.342C17.79 21.7705 18.167 21.1529 18.4871 20.498C19.3211 18.8171 19.765 16.9269 19.7778 15.002C19.7778 12.314 19.7778 9.77395 18.928 7.69595C18.1031 5.67995 16.6187 4.42995 14.5049 3.96195C14.9742 1.57195 16.2258 0.00195312 19.5556 0.00195312C24.8889 0.00195312 24.8889 4.03195 24.8889 9.00195C24.8889 12.098 23.2924 15.192 21.3333 16.434V18.084C27.3636 18.638 32 21.972 32 26.002H24.2507C23.8471 25.598 23.4009 25.216 22.912 24.856V24.854Z" fill="#C4C4C4" fill-opacity="0.74"/>
</svg>
