<svg width="25" height="25" viewBox="0 0 25 25" fill="none" xmlns="http://www.w3.org/2000/svg">
<path d="M10.3332 0.333252C12.1972 0.333177 14.0241 0.85407 15.6077 1.83715C17.1914 2.82023 18.4687 4.22636 19.2957 5.89686C20.1226 7.56736 20.4662 9.43573 20.2876 11.2911C20.1091 13.1465 19.4155 14.9151 18.2852 16.3973L24.6092 22.7239C24.8483 22.9639 24.9872 23.2858 24.9975 23.6244C25.0079 23.963 24.8889 24.2929 24.6649 24.547C24.4408 24.801 24.1285 24.9603 23.7912 24.9924C23.454 25.0246 23.1172 24.9271 22.8492 24.7199L22.7239 24.6093L16.3972 18.2852C15.1345 19.248 13.6608 19.8963 12.0978 20.1764C10.5348 20.4565 8.92765 20.3604 7.40921 19.8961C5.89078 19.4317 4.50475 18.6124 3.36582 17.506C2.22689 16.3996 1.36781 15.0379 0.859651 13.5335C0.351496 12.0291 0.208881 10.4254 0.443607 8.855C0.678332 7.28458 1.28365 5.79264 2.20947 4.50262C3.13529 3.2126 4.355 2.16159 5.76767 1.43657C7.18034 0.711539 8.74535 0.333336 10.3332 0.333252ZM10.3332 2.99992C8.38829 2.99992 6.52303 3.77254 5.14776 5.1478C3.7725 6.52307 2.99988 8.38833 2.99988 10.3333C2.99988 12.2782 3.7725 14.1434 5.14776 15.5187C6.52303 16.894 8.38829 17.6666 10.3332 17.6666C12.2781 17.6666 14.1434 16.894 15.5187 15.5187C16.8939 14.1434 17.6665 12.2782 17.6665 10.3333C17.6665 8.38833 16.8939 6.52307 15.5187 5.1478C14.1434 3.77254 12.2781 2.99992 10.3332 2.99992Z" fill="#C4C4C4" fill-opacity="0.74"/>
</svg>
